Coordinates
version=1
nRows=30
nColumns=38
inDegrees=no

Units are S.I. units (second, meters, Newtons, ...)
If the header above contains a line with 'inDegrees', this indicates whether rotational values are in degrees (yes) or radians (no).

endheader
time	pelvis_tilt	pelvis_list	pelvis_rotation	pelvis_tx	pelvis_ty	pelvis_tz	hip_flexion_r	hip_adduction_r	hip_rotation_r	knee_angle_r	ankle_angle_r	subtalar_angle_r	mtp_angle_r	hip_flexion_l	hip_adduction_l	hip_rotation_l	knee_angle_l	ankle_angle_l	subtalar_angle_l	mtp_angle_l	lumbar_extension	lumbar_bending	lumbar_rotation	arm_flex_r	arm_add_r	arm_rot_r	elbow_flex_r	pro_sup_r	wrist_flex_r	wrist_dev_r	arm_flex_l	arm_add_l	arm_rot_l	elbow_flex_l	pro_sup_l	wrist_flex_l	wrist_dev_l
0	-0.439861	1.48256	-1.07463	0.849046	1.85112	0.927648	0.0964394	0.0650191	-0.111668	0.248748	0.100215	0	0	0.244631	-0.217563	-0.182488	1.31752	-0.10444	0	0	-0.206613	0.0255281	-0.149124	-0.0579932	-0.219376	0.123477	0.468985	1.01405	0	0	-0.0961592	-0.391686	0.311048	0.721749	1.31368	0	0
0.01	-0.38753	1.48516	-1.13129	0.848595	1.8418	0.928676	0.0833967	0.061477	-0.104977	0.244042	0.104867	0	0	0.27173	-0.208331	-0.179261	1.31988	-0.0860795	0	0	-0.207752	0.0189929	-0.143553	-0.0580326	-0.220994	0.1285	0.46994	1.01508	0	0	-0.0947834	-0.39071	0.318481	0.717114	1.31292	0	0
0.02	-0.328092	1.48699	-1.1958	0.848063	1.83219	0.929749	0.0688769	0.0576373	-0.0986058	0.237732	0.109073	0	0	0.294962	-0.199774	-0.179321	1.31546	-0.066675	0	0	-0.208824	0.0120271	-0.138109	-0.0583943	-0.221972	0.131569	0.470374	1.01393	0	0	-0.0946914	-0.389409	0.323791	0.714113	1.31034	0	0
0.03	-0.209615	1.49193	-1.31858	0.847684	1.82227	0.930128	0.0545871	0.0504999	-0.103429	0.224506	0.111041	0	0	0.318281	-0.185076	-0.182186	1.3056	-0.0467439	0	0	-0.206508	-0.000813463	-0.134488	-0.0609459	-0.221773	0.134235	0.471721	1.01241	0	0	-0.0969655	-0.389668	0.327922	0.715203	1.30626	0	0
0.04	-0.191235	1.48829	-1.34296	0.847305	1.81301	0.93177	0.0373549	0.0485683	-0.0848708	0.224149	0.118017	0	0	0.334774	-0.182065	-0.185263	1.2901	-0.0285644	0	0	-0.212738	-0.00214543	-0.127561	-0.0600467	-0.222705	0.136053	0.471593	1.00929	0	0	-0.0945768	-0.38647	0.331913	0.712041	1.30089	0	0
0.05	-0.117887	1.48707	-1.42228	0.846808	1.80331	0.932757	0.019222	0.0442184	-0.0761121	0.215811	0.12183	0	0	0.350143	-0.173577	-0.191532	1.26952	-0.0109161	0	0	-0.21585	-0.00974298	-0.121606	-0.0609731	-0.221999	0.136262	0.471199	1.00395	0	0	-0.0947994	-0.385187	0.334804	0.710276	1.29605	0	0
0.06	-0.0448642	1.48468	-1.50152	0.846307	1.79358	0.933718	0.000174381	0.0397097	-0.0676336	0.207264	0.125399	0	0	0.36275	-0.165054	-0.199394	1.24406	0.00580472	0	0	-0.219512	-0.0178489	-0.115085	-0.0621987	-0.220818	0.136862	0.470578	0.99744	0	0	-0.0948655	-0.38383	0.336088	0.709814	1.29182	0	0
0.07	0.0230754	1.48221	-1.57466	0.845849	1.78392	0.934537	-0.0192013	0.0351828	-0.0589244	0.197425	0.128737	0	0	0.374214	-0.156787	-0.208453	1.21367	0.0213877	0	0	-0.222893	-0.0261162	-0.109659	-0.0628193	-0.218937	0.13895	0.468909	0.990757	0	0	-0.0950571	-0.382741	0.336052	0.709228	1.2888	0	0
0.08	0.0805534	1.47953	-1.6363	0.845434	1.77431	0.935251	-0.0381985	0.0309365	-0.0509629	0.187918	0.132466	0	0	0.384218	-0.149169	-0.217948	1.17917	0.037623	0	0	-0.226365	-0.0338731	-0.105328	-0.0626173	-0.21663	0.141634	0.466461	0.983511	0	0	-0.0954535	-0.381871	0.334555	0.708437	1.2875	0	0
0.09	0.131255	1.47666	-1.69089	0.845094	1.76476	0.935848	-0.0563312	0.0264503	-0.0443664	0.179915	0.13702	0	0	0.392245	-0.141633	-0.228621	1.13982	0.0516939	0	0	-0.229929	-0.0414203	-0.101178	-0.062262	-0.214675	0.146718	0.464665	0.975092	0	0	-0.0959505	-0.380768	0.331185	0.709101	1.28727	0	0
0.1	0.174804	1.47396	-1.73784	0.844798	1.75515	0.936274	-0.0742977	0.0220826	-0.0395307	0.171839	0.141901	0	0	0.398346	-0.134195	-0.240254	1.09493	0.0621262	0	0	-0.233163	-0.0485113	-0.0976425	-0.0617254	-0.212835	0.152359	0.463235	0.966149	0	0	-0.0963248	-0.379478	0.327449	0.707938	1.28802	0	0
0.11	0.21023	1.47123	-1.7763	0.844501	1.74545	0.936532	-0.0927512	0.0180925	-0.0361381	0.163102	0.146837	0	0	0.402053	-0.127338	-0.253263	1.04515	0.0710145	0	0	-0.23629	-0.0550855	-0.094611	-0.0611947	-0.21124	0.160885	0.46216	0.956092	0	0	-0.0971774	-0.378348	0.322821	0.706329	1.29004	0	0
0.12	0.24053	1.46935	-1.80905	0.84429	1.73573	0.936522	-0.110601	0.0144392	-0.034292	0.153769	0.151886	0	0	0.404613	-0.120517	-0.267085	0.990964	0.0792863	0	0	-0.238598	-0.0609836	-0.092244	-0.06082	-0.209985	0.171827	0.461562	0.947085	0	0	-0.098711	-0.377486	0.317522	0.707205	1.29163	0	0
0.13	0.268819	1.46897	-1.83944	0.844146	1.72605	0.936172	-0.126697	0.0111213	-0.0336701	0.144446	0.15727	0	0	0.406864	-0.113843	-0.282009	0.932632	0.086224	0	0	-0.239486	-0.066239	-0.0902476	-0.0605236	-0.208909	0.183532	0.461368	0.937168	0	0	-0.10017	-0.376744	0.312829	0.707246	1.29295	0	0
0.14	0.291989	1.46979	-1.86331	0.844223	1.71646	0.93554	-0.14105	0.00855191	-0.0350636	0.136238	0.163177	0	0	0.408585	-0.106907	-0.296882	0.869833	0.0916544	0	0	-0.239659	-0.0701481	-0.0893566	-0.0600289	-0.20776	0.19398	0.461118	0.925212	0	0	-0.10106	-0.376062	0.309017	0.70579	1.29457	0	0
0.15	0.310256	1.4712	-1.88248	0.844358	1.70688	0.934691	-0.154459	0.00663035	-0.0358883	0.128857	0.169291	0	0	0.408461	-0.100102	-0.313696	0.801932	0.0955108	0	0	-0.239588	-0.0731833	-0.0881511	-0.0594527	-0.206459	0.203307	0.460529	0.912524	0	0	-0.101912	-0.375398	0.304957	0.70572	1.29541	0	0
0.16	0.323194	1.473	-1.8959	0.844583	1.69721	0.933656	-0.168338	0.00551282	-0.0364833	0.120635	0.175038	0	0	0.406436	-0.0929403	-0.331767	0.729481	0.0980349	0	0	-0.239231	-0.0753901	-0.0874094	-0.0591279	-0.204868	0.21135	0.459798	0.900074	0	0	-0.103421	-0.374841	0.29985	0.70781	1.29453	0	0
0.17	0.334017	1.47546	-1.90612	0.844967	1.68741	0.932381	-0.181764	0.00482816	-0.0378576	0.112932	0.181526	0	0	0.403303	-0.0844984	-0.348927	0.653692	0.0989543	0	0	-0.238156	-0.0769025	-0.0875806	-0.0594029	-0.202912	0.216629	0.459571	0.887739	0	0	-0.105508	-0.3744	0.294243	0.709757	1.29301	0	0
0.18	0.346534	1.47859	-1.91727	0.845521	1.6775	0.930862	-0.194345	0.00426891	-0.0396185	0.106251	0.189204	0	0	0.399059	-0.0743139	-0.364933	0.574404	0.0979807	0	0	-0.236341	-0.0780428	-0.0885394	-0.0600394	-0.200562	0.219083	0.459208	0.879606	0	0	-0.108154	-0.374255	0.289064	0.711405	1.29172	0	0
0.19	0.3579	1.48114	-1.92787	0.846191	1.6676	0.929289	-0.205425	0.00304668	-0.0424395	0.102671	0.197247	0	0	0.391361	-0.0618688	-0.37862	0.489785	0.0946119	0	0	-0.235413	-0.0790346	-0.0888228	-0.060531	-0.198768	0.221185	0.459331	0.871766	0	0	-0.110271	-0.373873	0.284248	0.711991	1.29033	0	0
0.2	0.45933	1.48432	-2.02846	0.847083	1.65742	0.926753	-0.213473	-0.00258336	-0.0680201	0.0955804	0.207282	0	0	0.38333	-0.0383727	-0.385398	0.397387	0.0877733	0	0	-0.22956	-0.0874646	-0.0903533	-0.0628288	-0.197096	0.223451	0.461399	0.859985	0	0	-0.114651	-0.375112	0.279325	0.714557	1.28849	0	0
0.21	0.489749	1.48663	-2.05829	0.848147	1.64744	0.92478	-0.22307	-0.00561119	-0.073728	0.0945388	0.217392	0	0	0.368983	-0.0182135	-0.377743	0.301597	0.0807165	0	0	-0.228085	-0.0893669	-0.0905129	-0.0635494	-0.197205	0.227141	0.463147	0.84856	0	0	-0.116511	-0.374352	0.274642	0.715297	1.28576	0	0
0.22	0.513767	1.48824	-2.08174	0.849289	1.63733	0.922755	-0.233125	-0.00855166	-0.0803446	0.095127	0.22788	0	0	0.348445	0.00384504	-0.349684	0.199698	0.0702807	0	0	-0.227287	-0.0909995	-0.0909362	-0.0638157	-0.198694	0.236556	0.464733	0.832796	0	0	-0.118767	-0.37349	0.26892	0.715019	1.28306	0	0
0.23	0.520211	1.49072	-2.08855	0.850331	1.627	0.920516	-0.242509	-0.00966819	-0.0858672	0.0974305	0.239123	0	0	0.324969	0.0218007	-0.304534	0.0997135	0.0565124	0	0	-0.225709	-0.091197	-0.0898042	-0.064333	-0.200131	0.241251	0.465114	0.823736	0	0	-0.121201	-0.372588	0.26332	0.715248	1.28175	0	0
0.24	0.503382	1.49324	-2.07375	0.851007	1.61642	0.918147	-0.252139	-0.00888205	-0.0892587	0.101071	0.250262	0	0	0.299484	0.0327235	-0.25018	0.00709993	0.0362861	0	0	-0.224223	-0.090554	-0.0869462	-0.0650942	-0.201107	0.242308	0.464821	0.819006	0	0	-0.124279	-0.372366	0.258042	0.715552	1.28116	0	0
0.25	0.459411	1.49469	-2.02938	0.85149	1.60635	0.915755	-0.261809	-0.00590244	-0.0926926	0.107672	0.260868	0	0	0.3058	0.0300667	-0.232077	0	0.0393444	0	0	-0.225733	-0.0893628	-0.0859597	-0.0649318	-0.201003	0.242214	0.463868	0.817036	0	0	-0.126623	-0.373964	0.253522	0.71636	1.28073	0	0
0.26	0.421307	1.49428	-1.99324	0.851808	1.59603	0.913569	-0.270312	-0.00491249	-0.0963867	0.118938	0.27221	0	0	0.310665	0.0277709	-0.221959	0	0.0398802	0	0	-0.228064	-0.0900463	-0.0836275	-0.0645293	-0.200897	0.241895	0.462762	0.814798	0	0	-0.129322	-0.375234	0.247314	0.71549	1.28028	0	0
0.27	0.402333	1.49236	-1.97965	0.851891	1.58513	0.911526	-0.279742	-0.00666802	-0.0984604	0.130987	0.283723	0	0	0.311122	0.0266372	-0.219289	0	0.0387168	0	0	-0.229844	-0.093571	-0.0788709	-0.0646576	-0.20087	0.240725	0.461954	0.812253	0	0	-0.133201	-0.376532	0.24024	0.713309	1.28032	0	0
0.28	0.417636	1.49002	-2.00196	0.851792	1.57392	0.909429	-0.273471	-0.0152054	-0.126099	0.174008	0.30928	0	0	0.308599	0.0278317	-0.216261	0	0.0369061	0	0	-0.230072	-0.100606	-0.0730214	-0.0652389	-0.200687	0.238369	0.461419	0.809288	0	0	-0.137838	-0.378448	0.23287	0.71086	1.28118	0	0
0.29	0.441586	1.48758	-2.03166	0.851998	1.56243	0.907517	-0.277757	-0.0220938	-0.135212	0.195455	0.323521	0	0	0.302773	0.030962	-0.205697	0	0.0307188	0	0	-0.229674	-0.10804	-0.0686447	-0.0658277	-0.200868	0.236234	0.460467	0.807298	0	0	-0.142233	-0.38014	0.225746	0.708141	1.28261	0	0
